<svg width="512" height="512" viewBox="0 0 512 512" fill="none" xmlns="http://www.w3.org/2000/svg">
<g clip-path="url(#clip0_2702_744)">
<g clip-path="url(#clip1_2702_744)">
<g clip-path="url(#clip2_2702_744)">
<path fill-rule="evenodd" clip-rule="evenodd" d="M480.03 324.044C480.03 347.533 460.812 366.751 437.323 366.751H78.3625C54.8734 366.751 35.655 347.533 35.655 324.044V188.033C35.655 164.544 54.8734 145.326 78.3625 145.326H437.323C460.812 145.326 480.03 164.544 480.03 188.033V324.044V324.044Z" fill="url(#paint0_linear_2702_744)"/>
<path fill-rule="evenodd" clip-rule="evenodd" d="M404.939 253.133C423.701 259.697 433.077 270.943 433.077 286.855C433.077 297.328 429.188 305.641 421.428 311.789C413.676 317.942 402.617 321.76 388.222 321.76C373.827 321.76 360.512 317.589 348.248 310.742C348.381 307.111 349.341 303.128 351.102 298.803C352.864 294.479 354.949 291.043 357.338 288.533C368.61 294.391 378.418 297.324 386.743 297.324C390.678 297.324 393.722 296.664 395.842 295.334C397.964 294.009 399.02 292.231 399.02 289.996C399.02 285.796 395.767 282.655 389.282 280.562L377.633 276.162C360.01 269.739 351.198 259.274 351.198 244.738C351.198 234.123 354.9 225.711 362.303 219.487C369.707 213.272 379.685 207.921 392.232 207.921C398.439 207.921 405.273 208.794 412.75 210.539C420.22 212.288 426.356 216.596 431.15 218.963C431.433 222.877 430.648 227.172 428.824 231.85C426.988 236.532 424.737 239.847 422.048 241.804C410.196 236.495 400.334 233.84 392.432 233.84C389.603 233.84 387.472 234.468 385.976 235.73C384.497 236.99 383.769 238.593 383.769 240.55C383.769 243.902 386.445 246.553 391.808 248.509L404.939 253.133V253.133Z" fill="#F6F6F6"/>
<path fill-rule="evenodd" clip-rule="evenodd" d="M311.232 253.133C329.994 259.697 339.366 270.943 339.366 286.855C339.366 297.328 335.477 305.641 327.73 311.789C319.97 317.942 308.906 321.76 294.516 321.76C280.133 321.76 266.801 317.589 254.542 310.742C254.674 307.111 255.634 303.128 257.4 298.803C259.161 294.479 261.238 291.043 263.636 288.533C274.919 294.391 284.723 297.324 293.045 297.324C296.983 297.324 300.028 296.664 302.139 295.334C304.254 294.009 305.317 292.231 305.317 289.996C305.317 285.796 302.064 282.655 295.579 280.562L283.938 276.162C266.311 269.739 257.496 259.274 257.496 244.738C257.496 234.123 261.197 225.711 268.609 219.487C276.008 213.272 285.982 207.921 298.529 207.921C304.731 207.921 311.582 208.794 319.043 210.539C326.521 212.288 332.649 216.596 337.447 218.963C337.73 222.877 336.944 227.172 335.121 231.85C333.289 236.532 331.033 239.847 328.349 241.804C316.493 236.495 306.63 233.84 298.725 233.84C295.9 233.84 293.76 234.468 292.273 235.73C290.798 236.99 290.063 238.593 290.063 240.55C290.063 243.902 292.742 246.553 298.105 248.509L311.232 253.133V253.133Z" fill="#F6F6F6"/>
<path fill-rule="evenodd" clip-rule="evenodd" d="M242.896 254.612C242.896 248.189 241.874 242.252 239.831 236.802C237.791 231.351 234.862 226.677 231.056 222.764C227.246 218.851 222.631 215.78 217.205 213.545C211.771 211.314 205.672 207.949 198.905 207.949C190.866 207.949 183.849 211.588 177.859 214.384C171.868 217.176 166.932 221.015 163.056 225.904C159.172 230.798 156.28 236.556 154.378 243.191C152.475 249.826 151.523 257.054 151.523 264.873C151.523 272.966 152.296 280.451 153.85 287.294C155.4 294.128 158.045 300.06 161.781 305.096C165.52 310.122 170.384 314.032 176.379 316.819C182.374 319.611 189.814 321.755 198.697 321.755C215.053 321.755 228.87 317.019 240.153 309.063C239.036 300.97 236.153 294.535 231.521 289.786C225.758 291.95 220.661 293.5 216.241 294.452C211.816 295.391 207.915 295.865 204.546 295.865C197.803 295.865 192.951 294.149 190.006 290.684C187.064 287.232 185.45 283.148 185.164 276.946H240.162C241.978 271.072 242.896 263.133 242.896 254.612V254.612ZM184.955 256.062C185.374 248.933 186.675 241.306 188.839 238.165C191.008 235.02 194.327 233.45 198.81 233.45C203.426 233.45 206.89 235.12 209.196 238.473C211.506 241.826 212.66 248.581 212.66 253.748L212.664 256.062H184.955V256.062V256.062Z" fill="#F6F6F6"/>
<path fill-rule="evenodd" clip-rule="evenodd" d="M491.102 270C485.124 275.222 481.655 282.737 481.655 292.563V329.155C481.655 341.319 477.916 350.571 469.47 356.931C461.032 363.283 451.195 366.428 439.965 366.731L433.31 366.681V348.447C439.176 346.736 441.586 344.746 443.92 342.486C448.15 338.664 451.39 332.445 451.39 323.808V294.266C451.548 284.225 452.321 276.356 455.976 270.673C459.645 264.99 466.786 260.021 477.401 255.729C465.677 250.362 457.804 243.353 453.791 234.708C451.431 229.573 451.385 222.644 451.385 213.927V186.837C451.385 177.888 448.457 171.619 444.855 168.042C442.512 165.707 439.786 163.842 433.301 162.434V145.317C441.232 145.4 445.237 145.309 449.857 145.317C456.969 145.259 462.927 149.148 468.111 153.198C473.757 157.639 477.77 163.643 480.122 171.199C481.459 175.565 481.65 179.737 481.65 183.708V215.041C481.65 226.108 484.92 234.334 490.508 239.705C493.657 242.821 498.102 245.671 505.734 248.243V262.397C498.971 264.267 494.725 266.801 491.102 270V270Z" fill="#F6F6F6" stroke="#404040" stroke-width="5.1509"/>
<path fill-rule="evenodd" clip-rule="evenodd" d="M70.4131 145.327V145.351C68.1409 145.339 66.084 145.33 64.4393 145.334C57.3227 145.272 51.3656 149.161 46.1853 153.215C40.5312 157.656 35.6916 163.452 34.1754 171.216C33.3113 175.77 33.4941 179.749 33.4941 183.725V215.058C33.4941 226.121 29.3771 234.343 23.7935 239.723C20.6482 242.839 13.9346 245.684 6.29871 248.256V262.409C13.0662 264.275 19.5808 266.8 23.1947 270.008C29.177 275.234 33.4889 282.754 33.4889 292.578V329.17C33.4889 341.327 36.3891 350.587 44.8264 356.938C53.2642 363.286 63.0976 366.444 74.3269 366.751L81.8421 366.701V348.455C75.98 346.739 72.7235 344.749 70.376 342.497C66.1509 338.67 63.758 332.456 63.758 323.823V294.277C63.596 284.228 61.9758 276.367 58.316 270.68C54.6561 265.005 47.5145 260.028 36.8875 255.74C48.6159 250.369 56.4842 243.364 60.4972 234.723C62.8614 229.584 63.7585 222.655 63.7585 213.939V186.848C63.7585 177.899 65.8353 171.631 69.4335 168.05C71.386 166.106 74.8588 164.506 79.6827 163.21L87.3102 163.263C87.3102 156.698 87.3102 152.588 87.3102 145.325H70.4142V145.327H70.4131V145.327Z" fill="#F6F6F6" stroke="#404040" stroke-width="5.1509"/>
<path fill-rule="evenodd" clip-rule="evenodd" d="M140.736 293.78H135.023C128.813 293.78 126.474 290.514 126.474 283.955V163.398C126.474 156.149 124.38 151.06 121.7 148.127C119.02 145.202 114.368 145.232 107.741 145.232H94.8416L93.3212 145.202V145.327L93.3087 163.27V289.788C93.3087 299.85 95.5688 307.212 99.5897 311.898C103.615 316.575 110.416 318.91 120.005 318.91C126.635 318.91 134.18 318.212 142.638 316.812C143.062 315.399 143.274 312.375 143.274 307.735C143.274 303.082 142.427 298.441 140.736 293.78V293.78Z" fill="#F6F6F6"/>
</g>
</g>
</g>
<defs>
<linearGradient id="paint0_linear_2702_744" x1="35.655" y1="145.326" x2="35.655" y2="366.751" gradientUnits="userSpaceOnUse">
<stop offset="0.1497" stop-color="#2A4F84"/>
<stop offset="0.3884" stop-color="#294E82"/>
<stop offset="1" stop-color="#172E4E"/>
</linearGradient>
<clipPath id="clip0_2702_744">
<rect width="500" height="222.571" fill="white" transform="translate(6 145)"/>
</clipPath>
<clipPath id="clip1_2702_744">
<rect width="500" height="222.571" fill="white" transform="translate(6 145)"/>
</clipPath>
<clipPath id="clip2_2702_744">
<rect width="499.478" height="222.048" fill="white" transform="translate(6.27756 145.082)"/>
</clipPath>
</defs>
</svg>
