<svg width="512" height="512" viewBox="0 0 512 512" fill="none" xmlns="http://www.w3.org/2000/svg">
<g clip-path="url(#clip0_2702_619)">
<g clip-path="url(#clip1_2702_619)">
<path fill-rule="evenodd" clip-rule="evenodd" d="M104.898 171.095C106.12 182.071 82.9429 206.466 82.9429 218.665C82.9429 230.863 87.8158 252.818 114.654 263.798C141.492 274.776 145.148 302.829 145.148 319.91C145.148 336.986 135.392 369.916 135.392 369.916C135.392 369.916 129.295 451.639 162.225 466.276C195.156 480.911 187.84 480.911 195.156 480.911C202.473 480.911 256.145 502.872 287.856 494.333C319.57 485.795 328.103 476.038 328.103 476.038C328.103 476.038 359.82 478.475 369.577 450.418C379.339 422.366 385.434 363.82 381.774 336.983C378.114 310.144 373.236 274.778 395.19 262.577C417.151 250.379 440.323 235.747 436.663 223.546C433.004 211.348 413.492 194.27 413.492 194.27C413.492 194.27 408.612 163.779 412.269 156.46C415.926 149.141 437.884 130.84 425.685 117.426C413.494 104.009 391.532 104.009 391.532 104.009L363.48 106.446C363.48 106.446 315.91 63.7563 253.702 66.1957C191.497 68.6352 152.462 106.446 152.462 106.446C152.462 106.446 131.729 99.1275 113.431 106.446C95.1327 113.767 91.4847 106.444 95.1416 127.182C95.1416 127.182 103.68 160.115 104.898 171.095Z" fill="#FBA919"/>
<path fill-rule="evenodd" clip-rule="evenodd" d="M206.595 308.79C206.595 308.79 182.441 345.724 164.723 371.934C161.981 375.988 182.441 376.27 182.441 376.27L206.595 308.79V308.79V308.79Z" fill="#E78724"/>
<path fill-rule="evenodd" clip-rule="evenodd" d="M218.096 232.216C218.096 232.216 210.815 250.382 206.826 260.012C202.496 270.481 185.989 275.689 185.989 275.689C185.989 275.689 194.545 266.714 194.545 243.977C194.545 234.438 206.86 230.646 206.86 230.646L218.096 232.216V232.216V232.216Z" fill="#E78724"/>
<path fill-rule="evenodd" clip-rule="evenodd" d="M210.74 242.487C210.74 242.487 195.823 260.245 168.124 250.3C140.419 240.358 137.58 204.838 137.58 194.892C137.58 184.947 190.144 204.838 197.25 209.1C204.355 213.363 217.843 230.409 210.74 242.487V242.487V242.487V242.487Z" fill="#E78724"/>
<path fill-rule="evenodd" clip-rule="evenodd" d="M106.109 52.7334C106.109 52.7334 131.68 47.7578 148.726 61.2558C165.78 74.7509 170.745 85.4091 170.745 85.4091L142.012 108.186C142.012 108.186 128.128 101.748 123.866 83.2778C119.604 64.8086 122.446 56.2862 106.109 52.7334V52.7334V52.7334V52.7334Z" fill="#E78724"/>
<path fill-rule="evenodd" clip-rule="evenodd" d="M203.282 191.194C192.273 175.566 174.13 168.749 159.643 167.619C134.942 165.687 123.215 174.42 123.215 174.42C123.215 174.42 163.669 176.133 175.329 191.447C197.036 219.949 228.702 222.265 233.766 216.005C227.91 216.297 221.469 213.396 214.575 206.877C210.267 202.799 206.775 196.154 203.282 191.194V191.194V191.194V191.194Z" fill="#E78724"/>
<path fill-rule="evenodd" clip-rule="evenodd" d="M134.991 246.452C134.991 246.452 90.1064 231.022 98.6378 215.398C107.16 199.768 100.376 191.253 100.376 191.253C100.376 191.253 75.3135 209.962 81.7001 229.85C85.6249 242.057 92.2095 250.895 128.367 267.84C145.709 300.053 131.948 358.036 132.772 358.308C134.146 358.765 157.122 346.952 155.553 292.705C155.075 276.047 153.743 253.306 134.991 246.452V246.452V246.452V246.452Z" fill="#E78724"/>
<path fill-rule="evenodd" clip-rule="evenodd" d="M193.809 80.5287C174.988 90.09 149.205 103.405 149.205 103.405L159.353 108.482C158.384 110.051 157.917 110.987 157.917 110.987L168.332 115.723C168.332 115.723 193.758 134.141 209.337 145.983C204.143 129.989 188.896 104.862 188.896 104.862C188.896 104.862 184.575 93.3168 193.809 80.5287V80.5287V80.5287V80.5287Z" fill="#E78724"/>
<path fill-rule="evenodd" clip-rule="evenodd" d="M256.331 470.274C198.484 470.274 178.889 440.907 178.889 440.907L187.93 462.921C191.347 472.445 227.8 502.082 256.243 502.082" fill="#E78724"/>
<path fill-rule="evenodd" clip-rule="evenodd" d="M185.228 421.064C185.228 421.064 190.551 453.591 211.861 453.591C229.97 453.591 235.306 426.115 235.306 420.437L185.228 421.064V421.064V421.064Z" fill="#E78724"/>
<path fill-rule="evenodd" clip-rule="evenodd" d="M149.765 372.009C151.658 366.796 158.287 345.724 160.417 326.546C162.97 303.578 162.039 269.984 162.039 269.984C162.039 269.984 156.354 292.004 151.381 295.563C146.412 299.113 137.175 323.261 137.175 323.261C137.175 323.261 132.227 359.215 129.873 371.299C136.389 372.604 141.875 368.764 149.765 372.009V372.009V372.009V372.009Z" fill="#E78724"/>
<path fill-rule="evenodd" clip-rule="evenodd" d="M98.3029 229.497C98.3029 229.497 110.375 225.231 113.931 198.953C117.481 172.668 109.665 149.938 109.665 149.938C109.665 149.938 110.375 186.164 106.115 193.27C101.85 200.371 98.3029 202.502 93.3273 211.739C88.3516 220.977 95.4571 226.654 98.3029 229.497V229.497V229.497V229.497Z" fill="#E78724"/>
<path fill-rule="evenodd" clip-rule="evenodd" d="M112.718 58.9503L110.253 57.389C102.985 57.6346 112.718 58.9503 112.718 58.9503V58.9503V58.9503V58.9503Z" fill="#FDC168"/>
<path fill-rule="evenodd" clip-rule="evenodd" d="M203.635 72.7475C203.635 72.7475 192.273 70.8543 186.587 62.3319C180.902 53.8065 164.803 36.7557 139.139 36.5652C113.477 36.3732 88.0867 43.3864 88.0867 43.3864L110.25 57.3905C112.594 57.3146 116.693 57.3459 123.471 57.5721C151.286 58.4964 155.568 86.0089 155.568 86.0089L253.595 72.5109" fill="#FBA919"/>
<path fill-rule="evenodd" clip-rule="evenodd" d="M213.108 224.704C213.108 224.704 199.847 237.966 179.482 233.7C159.116 229.44 146.801 220.442 145.855 204.812C144.908 189.184 150.121 183.028 150.121 183.028C150.121 183.028 172.849 190.137 183.747 199.609C194.639 209.078 202.688 224.233 213.108 224.704V224.704V224.704V224.704Z" fill="white"/>
<path fill-rule="evenodd" clip-rule="evenodd" d="M197.059 219.967C197.059 219.967 185.559 225.221 172.704 220.942C155.876 215.329 154.755 197.829 154.755 197.829C154.755 197.829 144.432 228.123 173.375 233.955C196.589 238.631 210.318 225.179 210.318 225.179L197.059 219.967V219.967V219.967Z" fill="#C9C9C9"/>
<path fill-rule="evenodd" clip-rule="evenodd" d="M205.232 66.3207C203.995 40.3397 225.294 19.6469 232.673 18.7658C233.081 23.1684 232.262 40.3412 239.64 45.622C241.788 31.5955 249.051 16.1313 277.732 6C271.59 22.2917 276.912 35.9386 279.447 42.2642C299.032 24.4871 312.228 27.4251 312.228 27.4251C312.228 27.4251 298.62 50.9072 303.942 66.3148C264.625 63.2324 205.424 70.4927 205.232 66.3207V66.3207V66.3207V66.3207Z" fill="#463014"/>
<path fill-rule="evenodd" clip-rule="evenodd" d="M121.88 105.895C112.499 98.1124 119.491 90.8893 118.75 82.0469C118.347 77.3421 117.975 72.9023 116.424 70.454C107.791 56.822 87.4259 52.6858 87.222 52.6426L77.6636 50.7702L83.9907 43.3686C84.8108 42.4101 110.795 17.6182 151.005 30.5998C179.132 39.6715 199.954 70.4331 200.73 71.6759L186.626 78.3081C186.461 78.0461 169.999 49.1315 145.868 41.3503C126.362 35.056 108.384 41.0437 100.683 44.9686C108.869 48.237 119.572 54.189 126.021 64.371C129.063 69.1799 129.577 75.2346 130.072 81.0973C130.726 88.8592 131.337 96.1864 137.05 100.931L121.88 105.895V105.895V105.895Z" fill="#463014"/>
<path fill-rule="evenodd" clip-rule="evenodd" d="M96.8249 219.507C96.8249 219.507 108.644 204.851 112.145 176.332C113.52 165.1 111.078 142.944 107.169 134.42C107.879 155.375 102.552 176.332 102.552 176.332C102.552 176.332 98.9607 215.244 96.8249 219.507V219.507V219.507V219.507Z" fill="#463014"/>
<path fill-rule="evenodd" clip-rule="evenodd" d="M159.148 91.0932C159.142 91.0619 155.355 74.5157 144.858 66.163C130.05 54.384 111.969 60.65 111.795 60.7051L109.169 52.595C110.045 52.3107 130.711 45.7991 149.756 59.187C168.916 72.6508 171.215 84.8554 171.415 86.2039L159.148 91.0932V91.0932V91.0932Z" fill="#463014"/>
<path fill-rule="evenodd" clip-rule="evenodd" d="M133.946 208.996C133.946 208.996 127.746 200.119 128.861 190.357C129.416 185.536 131.65 180.588 135.639 178.831C143.051 175.575 146.336 183.977 146.336 183.977C146.336 183.977 135.904 186.551 133.946 208.996V208.996V208.996V208.996Z" fill="#463014"/>
<path fill-rule="evenodd" clip-rule="evenodd" d="M202.029 222.525C202.288 223.009 202.42 223.28 202.42 223.28C202.42 223.28 183.081 237.795 163.26 223.066C152.651 215.174 153.652 195.654 156.903 187.376C165.356 189.292 172.525 192.745 178.517 196.777C170.944 190.018 164.315 185.042 164.333 184.928L155.726 182.491L138.996 176.755C138.782 178.031 132.68 206.633 150.293 226.121C158.1 234.763 194.699 254.115 212.076 221.025L202.029 222.525V222.525V222.525Z" fill="#463014"/>
<path fill-rule="evenodd" clip-rule="evenodd" d="M200.218 224.652C211.107 241.225 238.58 231.755 238.107 214.234C238.107 214.234 219.75 224.365 203.531 205.711C194.062 194.821 163.72 164.793 122.572 174.772C150.988 181.021 188.607 206.982 200.218 224.652V224.652V224.652V224.652Z" fill="#463014"/>
<path fill-rule="evenodd" clip-rule="evenodd" d="M118.728 271.426C121.347 272.94 130.586 282.507 130.592 296.816C130.592 303.991 129.877 340.038 126.326 362.06C131.668 365.531 135.389 366.269 140.708 369.807C143.371 344.303 145.28 307.337 144.39 292.415C143.372 275.404 134.265 263.988 125.818 259.12C123.174 257.599 120.41 256.103 117.626 254.598C103.159 246.781 88.1998 238.695 88.1998 224.887C88.1998 214.086 92.3985 210.708 96.8443 207.127L97.3235 206.738C100.273 204.355 103.612 201.652 105.59 197.214C110.987 185.079 111.869 154.169 105.59 146.322C102.46 142.412 94.0729 129.264 96.4841 120.429C97.4024 117.056 99.5263 114.557 102.984 112.786C106.642 110.912 111.585 109.963 117.67 109.963C129.621 109.963 142.877 113.6 149.716 115.766C174.153 123.511 203.641 145.843 212.093 152.503C212.336 152.689 212.479 152.798 212.504 152.816L217.913 156.577L214.53 150.917C214.321 150.564 192.898 115.337 154.592 102.421C147.139 99.9088 132.498 95.6923 118.11 95.6923C109.543 95.6923 102.274 97.1881 96.5183 100.135C89.5036 103.724 84.7528 109.449 82.7792 116.687C77.942 134.43 93.6964 154.185 94.2337 154.816C96.0703 158.095 96.8488 181.914 92.6054 191.447C92.022 192.762 90.422 194.056 88.3963 195.69C87.7622 196.204 87.0523 196.736 86.3007 197.306C80.3144 201.825 71.2621 208.652 71.2621 224.389C71.2621 245.921 93.0847 257.596 110.622 266.983C113.499 268.531 116.245 269.996 118.728 271.426V271.426V271.426V271.426Z" fill="#463014"/>
<path fill-rule="evenodd" clip-rule="evenodd" d="M121.88 105.895C112.499 98.1124 119.491 90.8893 118.75 82.0469C118.347 77.3421 117.975 72.9023 116.424 70.454C107.791 56.822 87.4259 52.6858 87.222 52.6426L77.6636 50.7702L83.9907 43.3686C84.8108 42.4101 110.795 17.6182 151.005 30.5998C179.132 39.6715 199.954 70.4331 200.73 71.6759L186.626 78.3081C186.461 78.0461 169.999 49.1315 145.868 41.3503C126.362 35.056 108.384 41.0437 100.683 44.9686C108.869 48.237 119.572 54.189 126.021 64.371C129.063 69.1799 129.577 75.2346 130.072 81.0973C130.726 88.8592 131.337 96.1864 137.05 100.931L121.88 105.895V105.895V105.895Z" fill="#463014"/>
<path fill-rule="evenodd" clip-rule="evenodd" d="M121.575 107.489L120.969 106.988C114.013 101.214 115.247 95.5271 116.442 90.0246C116.985 87.4854 117.558 84.8599 117.326 82.1675C116.946 77.6398 116.582 73.3682 115.218 71.2115C106.998 58.2329 87.1327 54.0744 86.9362 54.0342L74.998 51.693L82.9116 42.4413C83.056 42.2687 99.7392 25.4277 127.994 25.4277C135.697 25.4277 143.588 26.7092 151.439 29.2454C180.796 38.7115 201.739 70.6058 201.937 70.9213L202.784 72.2757L186.1 80.1224L185.431 79.0597C183.636 75.9996 167.817 49.9129 145.44 42.6943C139.943 40.9202 134.153 40.0242 128.234 40.0242C117.513 40.0242 108.82 42.9459 104.194 44.9075C111.924 48.3889 121.3 54.2486 127.232 63.6045C130.458 68.7007 130.98 74.9295 131.492 80.947C132.12 88.4305 132.714 95.4675 137.964 99.8255L139.945 101.469L121.575 107.489V107.489V107.489Z" fill="#463014"/>
<path fill-rule="evenodd" clip-rule="evenodd" d="M159.148 91.0932C159.142 91.0619 155.355 74.5157 144.858 66.163C130.05 54.384 111.969 60.65 111.795 60.7051L109.169 52.595C110.045 52.3107 130.711 45.7991 149.756 59.187C168.916 72.6508 171.215 84.8554 171.415 86.2039L159.148 91.0932V91.0932V91.0932Z" fill="#463014"/>
<path fill-rule="evenodd" clip-rule="evenodd" d="M158.129 93.0281L157.76 91.3998C157.722 91.2406 154.008 75.2599 143.969 67.2778C138.248 62.7219 131.348 60.4089 123.473 60.4089C117.326 60.4089 112.758 61.8765 112.259 62.0491L110.902 62.5001L107.38 51.6811L108.73 51.245C109.336 51.053 114.821 49.3429 122.58 49.3429C132.815 49.3429 142.493 52.3464 150.577 58.0231C170.217 71.8248 172.614 84.5875 172.82 85.9955L172.992 87.1088L158.129 93.0281V93.0281V93.0281ZM123.474 57.5721C131.887 57.5721 139.592 60.1589 145.742 65.0497C154.656 72.1492 158.848 84.6828 160.116 89.1762L169.779 85.3258C168.904 81.9144 165.052 71.6759 148.942 60.3509C141.233 54.9332 132.367 52.1887 122.581 52.1887C117.211 52.1887 113.039 53.043 110.978 53.5639L112.721 58.9503C114.742 58.4071 118.631 57.5721 123.474 57.5721V57.5721V57.5721V57.5721Z" fill="#463014"/>
<path fill-rule="evenodd" clip-rule="evenodd" d="M210.971 445.787V445.787C206.774 445.787 202.49 444.265 199.521 441.694C197.248 439.735 189.562 432.676 186.173 424.027C184.908 420.793 185.193 418.206 187.028 416.344C188.293 415.069 190.918 413.543 196.248 413.543L200.041 413.537C204.559 413.533 212.168 413.533 218.671 413.533H224.905C228.96 413.533 231.866 414.409 233.538 416.118C235.684 418.324 234.996 421.129 234.397 422.606C233.352 425.193 229.028 433.611 221.708 441.437C219.087 444.241 215.273 445.787 210.971 445.787V445.787V445.787V445.787Z" fill="#463014"/>
<path fill-rule="evenodd" clip-rule="evenodd" d="M215.371 225.627L200.216 224.652C200.216 224.652 204.09 231.481 206.6 240.313C209.434 250.303 204.009 264.902 204.009 264.902C204.009 264.902 224.215 242.026 215.371 225.627V225.627V225.627V225.627Z" fill="#463014"/>
<path fill-rule="evenodd" clip-rule="evenodd" d="M196.454 485.802C142.516 481.657 123.54 430.691 123.54 420.076L137.626 420.082L130.583 420.076H137.626C137.696 424.664 152.03 468.262 197.533 471.761L196.454 485.802V485.802V485.802Z" fill="#463014"/>
<path fill-rule="evenodd" clip-rule="evenodd" d="M181.296 394.489C180.454 389.618 180.366 384.998 181.394 380.458C177.295 377.377 169.94 376.233 164.421 374.444C159.908 371.587 136.815 377.371 120.06 357.095C99.0679 331.705 103.485 316.546 103.485 316.546C98.1034 322.526 92.8867 320.247 84.6828 348.131C76.467 376.02 88.5392 395.462 111.039 414.981C121.669 424.201 136.695 428 149.62 429.454C145.291 425.106 157.016 424.672 165.098 421.647C164.454 415.122 165.533 408.788 170.398 403.687C173.332 400.612 177.106 398.774 181.022 397.309C181.241 396.803 181.425 396.336 181.634 395.851C181.504 395.407 181.378 394.959 181.296 394.489V394.489V394.489V394.489Z" fill="white"/>
<path fill-rule="evenodd" clip-rule="evenodd" d="M164.989 421.478C164.522 420.108 164.169 418.712 163.823 417.307C163.449 415.773 161.588 411.425 163.882 416.389C163.293 415.118 162.907 413.808 162.623 412.488C126.185 412.442 94.4837 387.424 100.608 334.826C95.8381 328.493 89.1583 347.596 89.1583 347.596C89.1583 347.596 70.9168 400.564 118.03 421.094C133.728 427.94 147.601 432.847 150.874 430.866C157.692 432.252 163.846 427.498 166.155 424.372C165.722 423.412 165.327 422.451 164.989 421.478V421.478V421.478V421.478Z" fill="#C9C9C9"/>
<path fill-rule="evenodd" clip-rule="evenodd" d="M180.64 386.862C180.696 382.423 181.603 378.123 183.749 373.838C183.899 373.543 184.073 373.26 184.234 372.973C170.212 372.852 154.063 371.51 140.312 366.006C125.198 359.96 106.291 339.276 103.042 314.974C103.042 314.974 74.5767 336.94 82.9414 383.954C90.7926 428.102 127.735 442.495 169.868 444.93C169.891 444.644 165.129 434.809 166.634 428.788C142.71 430.527 115.956 421.284 103.042 400.033C91.2182 380.583 94.5343 347.376 99.3939 342.51C111.247 379.912 153.898 387.514 180.64 386.862V386.862V386.862V386.862Z" fill="#463014"/>
<path fill-rule="evenodd" clip-rule="evenodd" d="M185.054 360.087C177.472 382.336 161.986 400.343 161.986 400.343C161.986 400.343 183.289 399.374 184.465 395.604C185.335 392.825 203.7 349.833 210.749 299.471C204.119 310.365 185.703 358.182 185.054 360.087V360.087V360.087V360.087Z" fill="#463014"/>
<path fill-rule="evenodd" clip-rule="evenodd" d="M305.748 308.79C305.748 308.79 329.897 345.724 347.62 371.934C350.362 375.988 329.897 376.27 329.897 376.27L305.748 308.79V308.79V308.79Z" fill="#E78724"/>
<path fill-rule="evenodd" clip-rule="evenodd" d="M294.244 232.216C294.244 232.216 301.527 250.382 305.51 260.012C309.839 270.481 326.345 275.689 326.345 275.689C326.345 275.689 317.79 266.714 317.79 243.977C317.79 234.438 305.477 230.646 305.477 230.646L294.244 232.216V232.216V232.216Z" fill="#E78724"/>
<path fill-rule="evenodd" clip-rule="evenodd" d="M301.598 242.487C301.598 242.487 316.516 260.245 344.222 250.3C371.928 240.355 374.766 204.838 374.766 194.892C374.766 184.947 322.202 204.838 315.096 209.1C307.991 213.363 294.497 230.409 301.598 242.487V242.487V242.487V242.487Z" fill="#E78724"/>
<path fill-rule="evenodd" clip-rule="evenodd" d="M406.232 52.7334C406.232 52.7334 380.662 47.7578 363.61 61.2558C346.563 74.7509 341.589 85.4091 341.589 85.4091L370.324 108.184C370.324 108.184 384.213 101.747 388.476 83.2763C392.736 64.8086 389.896 56.2862 406.232 52.7334V52.7334V52.7334V52.7334Z" fill="#E78724"/>
<path fill-rule="evenodd" clip-rule="evenodd" d="M309.059 191.194C320.069 175.566 338.206 168.749 352.698 167.619C377.401 165.687 389.122 174.42 389.122 174.42C389.122 174.42 348.668 176.133 337.007 191.447C315.299 219.949 283.642 222.265 278.579 216.005C284.433 216.297 290.877 213.396 297.767 206.877C302.073 202.799 305.566 196.154 309.059 191.194V191.194V191.194V191.194Z" fill="#E78724"/>
<path fill-rule="evenodd" clip-rule="evenodd" d="M377.35 246.452C377.35 246.452 422.229 231.022 413.705 215.398C405.183 199.768 411.961 191.253 411.961 191.253C411.961 191.253 437.03 209.962 430.637 229.85C426.712 242.057 420.128 250.895 383.971 267.84C366.628 300.053 380.39 358.036 379.569 358.308C378.194 358.765 355.221 346.952 356.79 292.705C357.266 276.047 358.598 253.306 377.35 246.452V246.452V246.452V246.452Z" fill="#E78724"/>
<path fill-rule="evenodd" clip-rule="evenodd" d="M318.534 80.5287C337.349 90.09 363.136 103.405 363.136 103.405L352.99 108.482C353.959 110.051 354.428 110.987 354.428 110.987L344.012 115.723C344.012 115.723 318.585 134.141 303.006 145.983C308.195 129.989 323.441 104.862 323.441 104.862C323.441 104.862 327.77 93.3168 318.534 80.5287V80.5287V80.5287V80.5287Z" fill="#E78724"/>
<path fill-rule="evenodd" clip-rule="evenodd" d="M256.014 470.274C313.852 470.274 333.446 440.907 333.446 440.907L324.412 462.921C320.995 472.445 284.538 502.082 256.102 502.082" fill="#E78724"/>
<path fill-rule="evenodd" clip-rule="evenodd" d="M327.113 421.064C327.113 421.064 321.785 453.591 300.48 453.591C282.374 453.591 277.037 426.115 277.037 420.437L327.113 421.064V421.064V421.064Z" fill="#E78724"/>
<path fill-rule="evenodd" clip-rule="evenodd" d="M362.577 372.009C360.684 366.796 354.054 345.724 351.919 326.546C349.366 303.578 350.302 269.984 350.302 269.984C350.302 269.984 355.986 292.004 360.953 295.563C365.93 299.113 375.161 323.261 375.161 323.261C375.161 323.261 380.108 359.215 382.463 371.299C375.948 372.604 370.468 368.764 362.577 372.009V372.009V372.009V372.009Z" fill="#E78724"/>
<path fill-rule="evenodd" clip-rule="evenodd" d="M414.043 229.497C414.043 229.497 401.965 225.231 398.415 198.953C394.865 172.668 402.679 149.938 402.679 149.938C402.679 149.938 401.965 186.164 406.229 193.27C410.495 200.374 414.043 202.502 419.017 211.739C423.985 220.976 416.883 226.654 414.043 229.497V229.497V229.497V229.497Z" fill="#E78724"/>
<path fill-rule="evenodd" clip-rule="evenodd" d="M399.622 58.9503L402.092 57.389C409.361 57.6346 399.622 58.9503 399.622 58.9503V58.9503V58.9503V58.9503Z" fill="#FDC168"/>
<path fill-rule="evenodd" clip-rule="evenodd" d="M308.702 72.7475C308.702 72.7475 320.07 70.8543 325.75 62.3319C331.434 53.8065 347.538 36.7557 373.204 36.5652C398.866 36.3732 424.256 43.3864 424.256 43.3864L402.092 57.3905C399.747 57.3146 395.648 57.3459 388.864 57.5721C361.054 58.4964 356.772 86.0089 356.772 86.0089L258.748 72.5109" fill="#FBA919"/>
<path fill-rule="evenodd" clip-rule="evenodd" d="M299.233 224.704C299.233 224.704 312.495 237.966 332.855 233.7C353.222 229.44 365.536 220.442 366.484 204.812C367.429 189.184 362.223 183.028 362.223 183.028C362.223 183.028 339.488 190.137 328.596 199.609C317.704 209.081 309.655 224.233 299.233 224.704V224.704V224.704V224.704Z" fill="white"/>
<path fill-rule="evenodd" clip-rule="evenodd" d="M315.278 219.967C315.278 219.967 326.783 225.221 339.633 220.942C356.465 215.329 357.586 197.829 357.586 197.829C357.586 197.829 367.904 228.123 338.961 233.955C315.751 238.631 302.019 225.179 302.019 225.179L315.278 219.967V219.967V219.967Z" fill="#C9C9C9"/>
<path fill-rule="evenodd" clip-rule="evenodd" d="M390.46 105.895C399.841 98.1124 392.855 90.8893 393.596 82.0469C393.992 77.3421 394.364 72.9023 395.916 70.454C404.55 56.822 424.914 52.6858 425.124 52.6426L434.684 50.7702L428.355 43.3686C427.535 42.4101 401.551 17.6182 361.335 30.5998C333.213 39.6715 312.39 70.4331 311.616 71.6759L325.714 78.3081C325.885 78.0461 342.348 49.1315 366.479 41.3503C385.984 35.056 403.962 41.0437 411.659 44.9686C403.477 48.237 392.77 54.189 386.321 64.371C383.279 69.1799 382.77 75.2346 382.275 81.0973C381.622 88.8592 381.004 96.1864 375.29 100.931L390.46 105.895V105.895V105.895Z" fill="#463014"/>
<path fill-rule="evenodd" clip-rule="evenodd" d="M415.511 219.507C415.511 219.507 403.697 204.851 400.197 176.332C398.822 165.1 401.26 142.944 405.167 134.42C404.457 155.375 409.788 176.332 409.788 176.332C409.788 176.332 413.381 215.244 415.511 219.507V219.507V219.507V219.507Z" fill="#463014"/>
<path fill-rule="evenodd" clip-rule="evenodd" d="M353.194 91.0932C353.2 91.0619 356.986 74.5157 367.485 66.163C382.292 54.384 400.374 60.65 400.542 60.7051L403.175 52.595C402.297 52.3107 381.634 45.7991 362.583 59.187C343.423 72.6508 341.129 84.8554 340.924 86.2039L353.194 91.0932V91.0932V91.0932Z" fill="#463014"/>
<path fill-rule="evenodd" clip-rule="evenodd" d="M378.395 208.996C378.395 208.996 384.596 200.119 383.475 190.357C382.926 185.536 380.692 180.588 376.703 178.831C369.291 175.575 366.004 183.977 366.004 183.977C366.004 183.977 376.438 186.551 378.395 208.996V208.996V208.996V208.996Z" fill="#463014"/>
<path fill-rule="evenodd" clip-rule="evenodd" d="M310.314 222.525C310.055 223.009 309.921 223.28 309.921 223.28C309.921 223.28 329.255 237.795 349.076 223.066C359.692 215.174 358.689 195.654 355.433 187.376C346.985 189.292 339.817 192.745 333.821 196.777C341.396 190.018 348.025 185.042 348.001 184.928L356.614 182.491L373.342 176.758C373.556 178.033 379.657 206.636 362.038 226.124C354.233 234.766 317.634 254.118 300.262 221.028L310.314 222.525V222.525V222.525Z" fill="#463014"/>
<path fill-rule="evenodd" clip-rule="evenodd" d="M312.119 224.652C301.23 241.225 273.764 231.755 274.239 214.234C274.239 214.234 292.59 224.365 308.809 205.711C318.278 194.821 348.626 164.793 389.772 174.772C361.358 181.021 323.736 206.982 312.119 224.652V224.652V224.652V224.652Z" fill="#463014"/>
<path fill-rule="evenodd" clip-rule="evenodd" d="M393.618 271.426C390.997 272.94 381.754 282.507 381.754 296.816C381.748 303.991 382.464 340.038 386.02 362.06C380.677 365.531 376.956 366.269 371.636 369.807C368.974 344.303 367.058 307.337 367.954 292.415C368.971 275.404 378.075 263.988 386.52 259.12C389.165 257.599 391.93 256.103 394.72 254.598C409.187 246.781 424.146 238.695 424.146 224.887C424.146 214.086 419.943 210.708 415.497 207.127L415.024 206.738C412.074 204.355 408.73 201.652 406.758 197.214C401.359 185.079 400.474 154.169 406.752 146.322C409.882 142.412 418.275 129.264 415.863 120.429C414.939 117.056 412.814 114.557 409.358 112.786C405.698 110.912 400.762 109.963 394.672 109.963C382.728 109.963 369.465 113.6 362.632 115.766C338.194 123.511 308.707 145.843 300.248 152.503C300.007 152.689 299.867 152.798 299.84 152.816L294.429 156.577L297.812 150.917C298.026 150.564 319.445 115.337 357.75 102.421C365.204 99.9088 379.843 95.6923 394.233 95.6923C402.8 95.6923 410.062 97.1881 415.823 100.135C422.839 103.724 427.587 109.449 429.564 116.687C434.401 134.43 418.645 154.185 418.108 154.816C416.271 158.095 415.494 181.914 419.732 191.447C420.315 192.762 421.915 194.056 423.945 195.69C424.579 196.204 425.283 196.736 426.041 197.306C432.029 201.825 441.076 208.652 441.076 224.389C441.076 245.921 419.254 257.596 401.722 266.983C398.842 268.531 396.093 269.996 393.618 271.426V271.426V271.426V271.426Z" fill="#463014"/>
<path fill-rule="evenodd" clip-rule="evenodd" d="M367.585 103.362C364.114 97.4828 355.238 86.131 334.778 76.1559C311.947 65.0273 285.522 59.379 256.227 59.3656V59.3596H256.17H256.113V59.3626C226.813 59.3775 200.384 65.0259 177.559 76.1529C157.1 86.1295 148.226 97.4798 144.752 103.359L143.262 105.331L160.782 109.231L161.337 108.529L161.63 107.887C161.901 106.729 164.25 100.477 183.783 90.9518C204.665 80.7669 229.021 75.6037 256.167 75.5948C283.316 75.6037 307.662 80.7669 328.542 90.9518C348.077 100.477 350.433 106.729 350.701 107.887L350.993 108.529L351.542 109.231L369.068 105.331L367.585 103.362V103.362V103.362Z" fill="#463014"/>
<path fill-rule="evenodd" clip-rule="evenodd" d="M390.46 105.895C399.841 98.1124 392.855 90.8893 393.596 82.0469C393.992 77.3421 394.364 72.9023 395.916 70.454C404.55 56.822 424.914 52.6858 425.124 52.6426L434.684 50.7702L428.355 43.3686C427.535 42.4101 401.551 17.6182 361.335 30.5998C333.213 39.6715 312.39 70.4331 311.616 71.6759L325.714 78.3081C325.885 78.0461 342.348 49.1315 366.479 41.3503C385.984 35.056 403.962 41.0437 411.659 44.9686C403.477 48.237 392.77 54.189 386.321 64.371C383.279 69.1799 382.77 75.2346 382.275 81.0973C381.622 88.8592 381.004 96.1864 375.29 100.931L390.46 105.895V105.895V105.895Z" fill="#463014"/>
<path fill-rule="evenodd" clip-rule="evenodd" d="M372.404 101.475L374.378 99.8315C379.632 95.4735 380.221 88.435 380.855 80.9529C381.364 74.9325 381.89 68.7036 385.115 63.6104C391.042 54.2575 400.425 48.3963 408.154 44.912C403.526 42.9518 394.831 40.0302 384.109 40.0302C378.187 40.0302 372.407 40.9262 366.909 42.7003C344.526 49.9189 328.709 76.0056 326.918 79.0657L326.247 80.1269L309.564 72.2817L310.412 70.9273C310.609 70.6117 331.546 38.7174 360.904 29.2514C368.755 26.7152 376.645 25.4352 384.355 25.4352C412.608 25.4352 429.293 42.2791 429.436 42.4488L437.35 51.7005L425.41 54.0417C425.212 54.0819 405.348 58.2374 397.122 71.219C395.759 73.3771 395.401 77.6443 395.014 82.1749C394.79 84.8689 395.355 87.4943 395.906 90.032C397.1 95.5345 398.332 101.226 391.372 106.995L390.768 107.497L372.404 101.475V101.475V101.475Z" fill="#463014"/>
<path fill-rule="evenodd" clip-rule="evenodd" d="M353.194 91.0932C353.2 91.0619 356.986 74.5157 367.485 66.163C382.292 54.384 400.374 60.65 400.542 60.7051L403.175 52.595C402.297 52.3107 381.634 45.7991 362.583 59.187C343.423 72.6508 341.129 84.8554 340.924 86.2039L353.194 91.0932V91.0932V91.0932Z" fill="#463014"/>
<path fill-rule="evenodd" clip-rule="evenodd" d="M339.358 87.1088L339.523 85.9955C339.732 84.5875 342.131 71.8277 361.767 58.0231C369.846 52.3464 379.526 49.3429 389.762 49.3429C397.525 49.3429 403.01 51.0501 403.617 51.245L404.966 51.6811L401.446 62.5001L400.087 62.0491C399.579 61.878 395.013 60.4089 388.869 60.4089C380.995 60.4089 374.1 62.7189 368.378 67.2778C358.338 75.2629 354.621 91.2421 354.587 91.3998L354.218 93.0251L339.358 87.1088V87.1088V87.1088ZM399.622 58.9503L401.371 53.5639C399.308 53.04 395.132 52.1887 389.762 52.1887C379.977 52.1887 371.108 54.9362 363.404 60.3509C347.288 71.6789 343.436 81.9144 342.563 85.3258L352.233 89.1762C353.498 84.6798 357.686 72.1462 366.604 65.0497C372.759 60.1589 380.455 57.5721 388.867 57.5721C393.705 57.5721 397.601 58.4071 399.622 58.9503V58.9503V58.9503V58.9503Z" fill="#463014"/>
<path fill-rule="evenodd" clip-rule="evenodd" d="M290.639 441.437C283.321 433.612 278.991 425.193 277.945 422.606C277.347 421.132 276.665 418.324 278.811 416.118C280.484 414.409 283.383 413.533 287.438 413.533H293.677C300.18 413.533 307.784 413.533 312.305 413.537L316.098 413.543C321.425 413.543 324.049 415.067 325.312 416.344C327.149 418.203 327.436 420.79 326.171 424.027C322.782 432.678 315.095 439.737 312.822 441.694C309.845 444.265 305.572 445.787 301.375 445.787V445.787C297.072 445.787 293.26 444.241 290.639 441.437V441.437V441.437V441.437Z" fill="#463014"/>
<path fill-rule="evenodd" clip-rule="evenodd" d="M296.974 225.627L312.119 224.652C312.119 224.652 308.251 231.481 305.742 240.313C302.908 250.303 308.333 264.902 308.333 264.902C308.333 264.902 288.125 242.026 296.974 225.627V225.627V225.627V225.627Z" fill="#463014"/>
<path fill-rule="evenodd" clip-rule="evenodd" d="M256.173 171.523C246.515 171.523 233.922 171.258 224.474 164.468C224.474 164.468 236.845 186.156 256.157 186.156L256.173 183.411L256.189 186.156C275.503 186.156 287.872 164.468 287.872 164.468C278.424 171.258 265.822 171.523 256.173 171.523V171.523V171.523V171.523Z" fill="#E78724"/>
<path fill-rule="evenodd" clip-rule="evenodd" d="M282.766 171.419C273.078 177.282 264.426 179.314 256.173 179.494C247.918 179.314 239.27 177.282 229.58 171.419C229.58 171.419 243.689 188.635 256.102 188.768V188.778C256.124 188.778 256.146 188.772 256.172 188.772C256.194 188.772 256.216 188.778 256.241 188.778V188.768C268.652 188.635 282.766 171.419 282.766 171.419V171.419V171.419V171.419Z" fill="#463014"/>
<path fill-rule="evenodd" clip-rule="evenodd" d="M315.889 485.802L314.809 471.759C360.301 468.26 374.636 424.663 374.71 420.074H388.796C388.802 430.688 369.819 481.657 315.889 485.802V485.802V485.802V485.802Z" fill="#463014"/>
<path fill-rule="evenodd" clip-rule="evenodd" d="M331.044 394.489C331.891 389.618 331.973 384.998 330.946 380.458C335.051 377.377 342.4 376.233 347.919 374.444C352.432 371.587 375.532 377.371 392.286 357.095C413.278 331.705 408.855 316.546 408.855 316.546C414.241 322.526 419.453 320.247 427.663 348.131C435.879 376.02 423.801 395.462 401.301 414.981C390.673 424.201 375.645 428 362.72 429.454C367.049 425.106 355.324 424.672 347.247 421.647C347.892 415.122 346.807 408.788 341.943 403.687C339.016 400.612 335.235 398.774 331.322 397.309C331.102 396.803 330.913 396.336 330.711 395.851C330.84 395.407 330.962 394.959 331.044 394.489V394.489V394.489V394.489Z" fill="white"/>
<path fill-rule="evenodd" clip-rule="evenodd" d="M347.346 421.478C347.82 420.108 348.166 418.712 348.513 417.307C348.893 415.773 350.753 411.425 348.457 416.389C349.046 415.118 349.431 413.808 349.716 412.488C386.154 412.442 417.855 387.424 411.724 334.826C416.495 328.493 423.179 347.596 423.179 347.596C423.179 347.596 441.422 400.564 394.309 421.094C378.611 427.94 364.739 432.847 361.465 430.866C354.641 432.252 348.486 427.498 346.184 424.372C346.614 423.412 347.017 422.451 347.346 421.478V421.478V421.478V421.478Z" fill="#C9C9C9"/>
<path fill-rule="evenodd" clip-rule="evenodd" d="M331.696 386.862C331.645 382.423 330.733 378.123 328.593 373.838C328.441 373.543 328.267 373.26 328.108 372.973C342.128 372.852 358.278 371.51 372.029 366.006C387.142 359.96 406.049 339.276 409.3 314.974C409.3 314.974 437.765 336.94 429.4 383.954C421.543 428.102 384.605 442.495 342.473 444.93C342.451 444.644 347.214 434.809 345.708 428.788C369.626 430.527 396.379 421.284 409.301 400.033C421.117 380.583 417.803 347.376 412.943 342.51C401.094 379.912 358.439 387.514 331.696 386.862V386.862V386.862V386.862Z" fill="#463014"/>
<path fill-rule="evenodd" clip-rule="evenodd" d="M348.71 397.936C343.676 392.495 334.421 386.008 313.082 386.008C313.082 386.008 272.625 385.984 256.244 385.974V385.974H256.175H256.105C239.725 385.986 199.258 386.008 199.258 386.008C177.925 386.008 168.67 392.496 163.633 397.936C156.297 405.856 155.147 416.873 160.222 430.643C173.708 467.296 192.66 504.533 256.102 504.585V504.591C256.125 504.591 256.146 504.585 256.172 504.585C256.194 504.585 256.216 504.591 256.241 504.591V504.585C319.677 504.53 338.629 467.296 352.119 430.643C357.195 416.873 356.041 405.856 348.71 397.936V397.936V397.936V397.936ZM338.833 428.073C332.407 446.478 315.139 491.028 256.17 491.105C197.193 491.028 179.931 446.479 173.506 428.073C169.95 417.861 170.221 410.304 174.338 405.61C177.149 402.401 183.609 398.572 198.33 398.572L213.71 398.566C225.056 398.555 239.301 398.543 256.172 398.537C273.036 398.543 287.289 398.555 298.632 398.566L314.005 398.572C328.731 398.572 335.189 402.4 338.002 405.61C342.115 410.309 342.388 417.861 338.833 428.073V428.073V428.073V428.073Z" fill="#463014"/>
<path fill-rule="evenodd" clip-rule="evenodd" d="M327.284 360.087C334.866 382.336 350.351 400.343 350.351 400.343C350.351 400.343 329.05 399.374 327.872 395.604C327.008 392.825 308.641 349.833 301.592 299.471C308.218 310.365 326.634 358.182 327.284 360.087V360.087V360.087V360.087Z" fill="#463014"/>
</g>
</g>
<defs>
<clipPath id="clip0_2702_619">
<rect width="371" height="499" fill="white" transform="translate(71 6)"/>
</clipPath>
<clipPath id="clip1_2702_619">
<rect width="371" height="499" fill="white" transform="translate(71 6)"/>
</clipPath>
</defs>
</svg>
