<svg width="57" height="61" viewBox="0 0 57 61" fill="none" xmlns="http://www.w3.org/2000/svg">
<path d="M17 15.53C16.854 15.5276 16.7103 15.4932 16.579 15.4292C16.4477 15.3653 16.332 15.2734 16.24 15.16C16.0968 14.9546 16.0359 14.7031 16.0692 14.455C16.1026 14.2069 16.2277 13.9803 16.42 13.82C16.8661 13.5331 17.2404 13.1477 17.5143 12.6935C17.7882 12.2393 17.9544 11.7284 18 11.2C17.9737 10.5676 17.7299 9.9636 17.31 9.49L17.26 9.42L17.19 9.37C16.8749 9.10667 16.5775 8.82271 16.3 8.52V8.52L16.21 8.42C15.4858 7.58784 15.0848 6.52314 15.08 5.42C15.1184 4.59279 15.3534 3.78665 15.7656 3.0684C16.1777 2.35016 16.7552 1.74051 17.45 1.29C17.5396 1.16041 17.6585 1.05383 17.7971 0.978922C17.9357 0.904017 18.09 0.862911 18.2475 0.858958C18.405 0.855004 18.5612 0.888314 18.7033 0.956171C18.8455 1.02403 18.9696 1.12452 19.0656 1.24944C19.1616 1.37437 19.2267 1.5202 19.2556 1.67505C19.2845 1.82991 19.2764 1.98941 19.232 2.14055C19.1876 2.2917 19.1081 2.43021 19 2.54481C18.8919 2.65941 18.7583 2.74684 18.61 2.8C18.1556 3.08777 17.7738 3.47669 17.4945 3.93638C17.2153 4.39607 17.046 4.91409 17 5.45C17.0289 6.07406 17.2686 6.66986 17.68 7.14L17.74 7.21H17.8C18.1207 7.47438 18.4184 7.76542 18.69 8.08C18.7445 8.13613 18.7946 8.1963 18.84 8.26C19.5124 9.07271 19.8958 10.0857 19.93 11.14C19.8829 11.9666 19.6443 12.7709 19.233 13.4894C18.8217 14.2079 18.2489 14.8209 17.56 15.28C17.4074 15.4249 17.2098 15.5132 17 15.53Z" fill="#DADADA"/>
<path d="M28.47 15.53C28.324 15.5276 28.1803 15.4932 28.049 15.4293C27.9177 15.3653 27.802 15.2734 27.71 15.16C27.5668 14.9547 27.5059 14.7031 27.5392 14.455C27.5726 14.2069 27.6977 13.9803 27.89 13.82C28.3435 13.5375 28.7257 13.1541 29.0067 12.6996C29.2877 12.2452 29.4599 11.732 29.51 11.2C29.4836 10.5676 29.2399 9.96361 28.82 9.49V9.42L28.75 9.37C28.4349 9.10667 28.1375 8.82272 27.86 8.52V8.52L27.77 8.42C27.0458 7.58785 26.6448 6.52315 26.64 5.42C26.6804 4.59713 26.9154 3.79557 27.3256 3.08112C27.7359 2.36666 28.3097 1.75969 29 1.31C29.0896 1.18042 29.2085 1.07383 29.3471 0.998926C29.4857 0.924021 29.64 0.882915 29.7975 0.878962C29.955 0.875008 30.1112 0.908318 30.2533 0.976176C30.3955 1.04403 30.5196 1.14452 30.6156 1.26944C30.7116 1.39437 30.7767 1.5402 30.8056 1.69506C30.8345 1.84992 30.8264 2.00941 30.782 2.16056C30.7376 2.3117 30.6581 2.45022 30.55 2.56481C30.4419 2.67941 30.3083 2.76685 30.16 2.82C29.7044 3.10355 29.3203 3.48835 29.0376 3.94449C28.7549 4.40063 28.5812 4.91581 28.53 5.45C28.5589 6.07406 28.7986 6.66986 29.21 7.14L29.27 7.21H29.33C29.6507 7.47439 29.9484 7.76543 30.22 8.08C30.2774 8.13344 30.3278 8.19392 30.37 8.26C31.0424 9.07271 31.4258 10.0857 31.46 11.14C31.4106 11.9832 31.1618 12.8026 30.7341 13.531C30.3065 14.2594 29.7122 14.8759 29 15.33C28.8488 15.4508 28.6633 15.5207 28.47 15.53V15.53Z" fill="#DADADA"/>
<path d="M43.24 58.71H2.12V60.61H43.24V58.71Z" fill="#DADADA"/>
<path d="M21 53.8C9.45 53.8 0.0500031 44.94 0.0500031 34.06V20H12.2V21.84H2V31.36V34.06C2 43.9 10.55 51.91 21.05 51.91H24.74C35.25 51.91 43.79 43.91 43.79 34.07V21.84H18.79V29.46H20.68C21.4669 29.4731 22.2172 29.795 22.7691 30.3562C23.3209 30.9174 23.6301 31.6729 23.63 32.46V43.06H12.3V32.4C12.2999 31.6129 12.6091 30.8574 13.1609 30.2962C13.7128 29.735 14.463 29.4131 15.25 29.4H16.83V20H45.69V24.54H46.51H48C49.1952 24.5279 50.3799 24.7633 51.4796 25.2314C52.5793 25.6995 53.5702 26.3902 54.39 27.26C55.083 27.9942 55.6139 28.866 55.9481 29.8187C56.2823 30.7714 56.4124 31.7837 56.33 32.79C55.92 37.86 48.33 42.79 43.03 44.13L42.72 44.21L42.55 44.47C40.5937 47.3948 37.9386 49.7854 34.8252 51.425C31.7118 53.0646 28.2385 53.9016 24.72 53.86L21 53.8ZM45.64 34.06C45.6398 36.1015 45.3019 38.1288 44.64 40.06L44.03 41.83L45.73 41.04C49.73 39.18 54.15 35.73 54.41 32.55C54.4684 31.8126 54.3733 31.071 54.1306 30.3722C53.8879 29.6734 53.5029 29.0325 53 28.49C52.3561 27.8139 51.5798 27.2776 50.7196 26.9146C49.8594 26.5516 48.9336 26.3696 48 26.38C47.48 26.38 47 26.38 46.46 26.38H45.69V32.44L45.64 34.06ZM15.22 31.35C15.0802 31.3428 14.9405 31.3651 14.8098 31.4153C14.6792 31.4655 14.5606 31.5426 14.4616 31.6416C14.3626 31.7406 14.2855 31.8592 14.2353 31.9898C14.1851 32.1205 14.1628 32.2602 14.17 32.4V41.4H21.61V32.4C21.6168 32.2645 21.5959 32.1291 21.5487 32.0019C21.5015 31.8748 21.4289 31.7586 21.3354 31.6603C21.2418 31.5621 21.1293 31.484 21.0046 31.4306C20.8799 31.3773 20.7456 31.3498 20.61 31.35H15.22Z" fill="#DADADA"/>
</svg>
