<svg width="50" height="38" viewBox="0 0 50 38" fill="none" xmlns="http://www.w3.org/2000/svg">
<path d="M48.8416 30.2475L46.1928 27.5987V12.8507C46.1928 12.3082 45.8863 11.8124 45.4011 11.5696L23.9235 0.830863C23.5202 0.629296 23.0457 0.629296 22.6424 0.830863L1.1648 11.5697C0.679552 11.8124 0.373047 12.3083 0.373047 12.8507C0.373047 13.3932 0.679552 13.8891 1.1648 14.1319L9.57786 18.3383L9.57776 32.4077C9.57776 32.9058 9.83643 33.3681 10.261 33.6285C14.1699 36.0269 18.673 37.2946 23.2835 37.2946C27.894 37.2946 32.3969 36.0269 36.305 33.6285C36.7295 33.368 36.9881 32.9058 36.9881 32.4077L36.988 18.3383L43.3283 15.1683V27.5987L40.6796 30.2475C40.411 30.5161 40.26 30.8803 40.26 31.2602V35.8625C40.26 36.6535 40.9013 37.2948 41.6923 37.2948H47.8289C48.6199 37.2948 49.2612 36.6535 49.2612 35.8625V31.2602C49.2612 30.8803 49.1102 30.5161 48.8416 30.2475ZM34.1237 31.5893C30.8295 33.45 27.0986 34.43 23.2836 34.43C19.4684 34.43 15.7373 33.4499 12.4423 31.5892V27.7202C15.5908 29.9539 19.3441 31.1583 23.283 31.1583C27.2218 31.1583 30.9752 29.9539 34.1237 27.7201V31.5893ZM12.4423 19.802L22.6271 25.0485C23.0387 25.2605 23.5273 25.2605 23.9388 25.0485L34.1236 19.802C34.1236 21.4264 34.1234 23.1498 34.1232 24.0345C31.1683 26.7857 27.3415 28.2939 23.2829 28.2939C19.2244 28.2939 15.3975 26.7857 12.4427 24.0345C12.4425 23.1498 12.4424 21.4264 12.4423 19.802ZM23.2829 21.9883L5.00796 12.8507L23.2829 3.71326L41.558 12.8507L23.2829 21.9883ZM46.3966 34.4303H43.1246V31.8534L44.7606 30.2175L46.3966 31.8535V34.4303Z" fill="#919191"/>
</svg>
