<svg width="50" height="43" viewBox="0 0 50 43" fill="none" xmlns="http://www.w3.org/2000/svg">
<path d="M47.9485 8.62833H34.0396V2.39003C34.0396 1.59904 33.3983 0.957764 32.6073 0.957764H17.2662C16.4752 0.957764 15.8339 1.59904 15.8339 2.39003V8.62833H1.92494C1.13395 8.62833 0.492676 9.2696 0.492676 10.0606V40.7429C0.492676 41.5339 1.13395 42.1752 1.92494 42.1752H47.9485C48.7395 42.1752 49.3808 41.5339 49.3808 40.7429V10.0606C49.3808 9.2696 48.7395 8.62833 47.9485 8.62833ZM18.6984 3.8223H31.1751V8.62833H18.6984V3.8223ZM46.5162 39.3107H3.35721V21.1889L8.5828 26.4145C8.8514 26.6831 9.21567 26.8341 9.59551 26.8341H20.4362V26.9359C20.4362 29.385 22.4171 31.4363 24.9366 31.4363C27.4618 31.4363 29.4371 29.379 29.4371 26.9359V26.8341H40.2778C40.6577 26.8341 41.0219 26.6832 41.2905 26.4145L46.5162 21.1889V39.3107ZM23.3008 26.9359V23.7658H26.5728V26.9359C26.5728 27.8257 25.852 28.5718 24.9368 28.5718C24.0219 28.5718 23.3008 27.8259 23.3008 26.9359ZM46.5162 17.1379L39.6846 23.9695H29.4372V22.3335C29.4372 21.5425 28.7959 20.9012 28.0049 20.9012H21.8684C21.0774 20.9012 20.4362 21.5425 20.4362 22.3335V23.9695H10.1888L3.35721 17.1379V11.4929H46.5162V17.1379Z" fill="#919191"/>
</svg>
