<svg width="16" height="12" viewBox="0 0 16 12" fill="none" xmlns="http://www.w3.org/2000/svg">
<path d="M3.33337 1.5V10.5H7.33337V8.75H8.66671V10.5H12.6667V1.5H3.33337ZM4.66671 2.5H6.00004V3.5H4.66671V2.5ZM7.33337 2.5H8.66671V3.5H7.33337V2.5ZM10 2.5H11.3334V3.5H10V2.5ZM4.66671 4.5H6.00004V5.5H4.66671V4.5ZM7.33337 4.5H8.66671V5.5H7.33337V4.5ZM10 4.5H11.3334V5.5H10V4.5ZM4.66671 6.5H6.00004V7.5H4.66671V6.5ZM7.33337 6.5H8.66671V7.5H7.33337V6.5ZM10 6.5H11.3334V7.5H10V6.5ZM4.66671 8.5H6.00004V9.5H4.66671V8.5ZM10 8.5H11.3334V9.5H10V8.5Z" fill="#A7A7A7"/>
</svg>
