<svg width="57" height="34" viewBox="0 0 57 34" fill="none" xmlns="http://www.w3.org/2000/svg">
<path d="M28.2251 33.775C27.5554 33.775 26.9276 33.6701 26.3417 33.4601C25.7557 33.2502 25.2116 32.8933 24.7094 32.3895L1.60626 9.21396C0.685487 8.29029 0.225098 7.11472 0.225098 5.68724C0.225098 4.25976 0.685486 3.08418 1.60626 2.16052C2.52704 1.23686 3.69894 0.775024 5.12196 0.775024C6.54498 0.775024 7.71688 1.23686 8.63765 2.16052L28.2251 21.8094L47.8125 2.16052C48.7333 1.23686 49.9052 0.775024 51.3282 0.775024C52.7513 0.775024 53.9232 1.23686 54.8439 2.16052C55.7647 3.08418 56.2251 4.25976 56.2251 5.68724C56.2251 7.11472 55.7647 8.29029 54.8439 9.21396L31.7408 32.3895C31.2386 32.8933 30.6945 33.2502 30.1085 33.4601C29.5226 33.6701 28.8948 33.775 28.2251 33.775Z" fill="#919191"/>
</svg>
