<svg width="34" height="57" viewBox="0 0 34 57" fill="none" xmlns="http://www.w3.org/2000/svg">
<path d="M33.7251 28.275C33.7251 28.9447 33.6201 29.5725 33.4102 30.1584C33.2003 30.7444 32.8434 31.2885 32.3396 31.7907L9.16403 54.8939C8.24036 55.8146 7.06479 56.275 5.63731 56.275C4.20983 56.275 3.03426 55.8146 2.11059 54.8939C1.18693 53.9731 0.725098 52.8012 0.725097 51.3782C0.725097 49.9551 1.18693 48.7832 2.11059 47.8625L21.7594 28.275L2.11059 8.68758C1.18693 7.7668 0.725095 6.59491 0.725095 5.17189C0.725095 3.74887 1.18693 2.57697 2.11059 1.65619C3.03426 0.735413 4.20983 0.275025 5.63731 0.275024C7.06479 0.275024 8.24036 0.735413 9.16403 1.65619L32.3396 24.7593C32.8434 25.2616 33.2003 25.8057 33.4102 26.3916C33.6201 26.9776 33.7251 27.6054 33.7251 28.275Z" fill="#919191"/>
</svg>
